<svg width="20" height="20" viewBox="0 0 20 20" fill="none" xmlns="http://www.w3.org/2000/svg">
<rect width="20" height="20" rx="5" fill="#A1A1A1"/>
<path fill-rule="evenodd" clip-rule="evenodd" d="M3.59334 7.82101H6.22855V16.6666H3.59334V7.82101ZM4.89461 3.33325C5.77325 3.33325 6.48852 4.04902 6.48852 4.92669C6.48852 5.80436 5.77254 6.52013 4.89461 6.52013C4.01668 6.52013 3.33337 5.80436 3.33337 4.92669C3.33337 4.04902 4.01668 3.33325 4.89461 3.33325ZM7.78979 7.82101H10.3923V9.05656C10.9456 8.24351 11.8562 7.72302 12.8968 7.72302H13.6128C15.2721 7.72302 16.6053 9.08923 16.6053 10.7146V16.6659H14.0028V15.8528V11.8856C13.9701 10.8772 13.2868 10.0968 12.2789 10.0968C11.2703 10.0968 10.4243 10.8772 10.3923 11.8856V16.6659H7.78979V7.8203V7.82101Z" fill="#E7E7E7"/>
</svg>
