<svg width="20" height="20" viewBox="0 0 20 20" fill="none" xmlns="http://www.w3.org/2000/svg">
<rect width="20" height="20" rx="5" fill="#A1A1A1"/>
<path fill-rule="evenodd" clip-rule="evenodd" d="M10.0001 5.55566C8.83271 5.55566 7.30176 5.60733 6.0049 5.71127C4.47458 5.84073 3.6702 6.10029 3.46288 7.6302C3.38505 8.33043 3.33337 9.2902 3.33337 10.2755C3.33337 11.2608 3.38505 12.2467 3.46288 12.9208C3.6702 14.4769 4.47458 14.7103 6.0049 14.8397C7.30238 14.9692 8.83271 14.9953 10.0001 14.9953C11.1668 14.9953 12.6716 14.9692 13.9946 14.8397C15.5255 14.7103 16.3038 14.4769 16.5111 12.9208C16.6151 12.2467 16.6667 11.2608 16.6667 10.2755C16.6667 9.2902 16.6151 8.33043 16.5111 7.6302C16.3031 6.10029 15.5249 5.84073 13.9946 5.71127C12.6722 5.60733 11.1674 5.55566 10.0001 5.55566ZM12.127 10.2753L8.65113 8.27852V12.2981L12.127 10.2753Z" fill="#E7E7E7"/>
</svg>
