<svg width="137" height="45" viewBox="0 0 137 45" fill="none" xmlns="http://www.w3.org/2000/svg">
<path d="M7.74106 42.9852L7.74106 42.9852L7.72924 42.985C7.06855 42.9764 6.40941 42.9191 5.75718 42.8134C5.21502 42.7194 4.68982 42.5455 4.19877 42.2972C3.72011 42.0549 3.28353 41.7372 2.90576 41.3563L2.89999 41.3504L2.89415 41.3447C2.51244 40.9698 2.19465 40.5349 1.95338 40.0573L1.95235 40.0553C1.70406 39.5661 1.53223 39.0416 1.44284 38.5003L1.44267 38.4993C1.33403 37.8447 1.27525 37.1827 1.26684 36.5191L1.2667 36.5083L1.26637 36.4974C1.26307 36.3875 1.25896 36.1346 1.25559 35.8976L1.25151 35.5936L1.25033 35.4988L1.25002 35.4729L1.25 35.4712V8.7642L1.25001 8.76329L1.25035 8.73772L1.25159 8.64443L1.25582 8.34542C1.25927 8.11298 1.2634 7.86417 1.26648 7.75734L1.26677 7.74695L1.2669 7.73655C1.27495 7.07426 1.33337 6.41355 1.44166 5.76012L1.44181 5.75924C1.53148 5.21569 1.70368 4.68904 1.95245 4.19752L1.95352 4.19539C2.19451 3.71696 2.51132 3.28067 2.89168 2.90345L2.89169 2.90346L2.89636 2.89878C3.27877 2.51548 3.71882 2.19441 4.20052 1.94722C4.6892 1.7007 5.21202 1.5287 5.75161 1.43692C6.40627 1.33004 7.06801 1.27225 7.73128 1.26403L7.73271 1.26401L8.76805 1.25H127.633H127.642L128.68 1.26457L128.683 1.2646C129.339 1.2724 129.994 1.32959 130.641 1.43567C131.188 1.52883 131.718 1.70235 132.214 1.9506C133.178 2.44923 133.963 3.23622 134.46 4.20202C134.703 4.68863 134.872 5.20913 134.96 5.74601L134.96 5.74843C135.07 6.40865 135.132 7.07599 135.144 7.74514C135.148 8.06351 135.148 8.4067 135.148 8.75615V8.76932L135.148 8.78248C135.157 9.20108 135.157 9.6011 135.157 10.0191V34.2293C135.157 34.6518 135.157 35.0481 135.148 35.4454L135.148 35.4592V35.473C135.148 35.8493 135.148 36.185 135.143 36.5292C135.131 37.1854 135.07 37.8398 134.962 38.4872L134.961 38.4944C134.874 39.0379 134.704 39.5648 134.457 40.0567C134.213 40.531 133.895 40.9639 133.516 41.3395L133.506 41.3492C133.128 41.7322 132.691 42.0517 132.211 42.2956C131.717 42.5457 131.189 42.7201 130.643 42.8131C129.99 42.9195 129.331 42.977 128.67 42.9849L128.656 42.9853C128.326 42.9929 127.981 42.9973 127.647 42.9973L127.645 42.9973L126.393 42.9996H126.391L8.75905 42.9973C8.41739 42.9973 8.08295 42.9929 7.74106 42.9852Z" stroke="#B3B3B3" stroke-width="2.5"/>
<path d="M27.6426 22.4712C27.655 21.5056 27.9115 20.5589 28.3881 19.7192C28.8647 18.8794 29.546 18.1738 30.3686 17.6681C29.8461 16.9218 29.1567 16.3076 28.3552 15.8743C27.5538 15.441 26.6623 15.2006 25.7517 15.1721C23.8091 14.9682 21.9259 16.3345 20.9361 16.3345C19.927 16.3345 18.403 15.1924 16.7618 15.2261C15.7002 15.2604 14.6656 15.5691 13.7589 16.1221C12.8521 16.6751 12.104 17.4536 11.5875 18.3817C9.3503 22.2551 11.0191 27.9478 13.1622 31.0787C14.2344 32.6119 15.4875 34.3245 17.1272 34.2637C18.7318 34.1972 19.331 33.2406 21.2678 33.2406C23.1867 33.2406 23.7489 34.2637 25.4219 34.2251C27.1436 34.1972 28.2284 32.6852 29.263 31.1375C30.0334 30.0451 30.6262 28.8377 31.0195 27.5601C30.0192 27.137 29.1656 26.4289 28.5651 25.5239C27.9646 24.619 27.6437 23.5572 27.6426 22.4712V22.4712Z" fill="#B3B3B3"/>
<path d="M24.4831 13.1131C25.4219 11.9862 25.8844 10.5376 25.7724 9.0752C24.3382 9.22583 23.0133 9.9113 22.0619 10.995C21.5967 11.5244 21.2404 12.1404 21.0134 12.8076C20.7864 13.4748 20.6931 14.1802 20.7389 14.8835C21.4562 14.8908 22.1659 14.7353 22.8145 14.4287C23.4631 14.122 24.0336 13.6722 24.4831 13.1131Z" fill="#B3B3B3"/>
<path d="M47.9252 30.3827H42.4496L41.1347 34.2654H38.8154L44.0018 19.9004H46.4114L51.5978 34.2654H49.239L47.9252 30.3827ZM43.0167 28.591H47.357L45.2174 22.2897H45.1575L43.0167 28.591Z" fill="#B3B3B3"/>
<path d="M62.7988 29.0291C62.7988 32.2838 61.0568 34.3748 58.428 34.3748C57.7621 34.4096 57.0999 34.2562 56.5171 33.9322C55.9343 33.6081 55.4545 33.1265 55.1328 32.5424H55.083V37.7299H52.9332V23.7919H55.0141V25.5339H55.0537C55.3902 24.9527 55.8781 24.4735 56.4653 24.1475C57.0525 23.8214 57.7172 23.6607 58.3885 23.6824C61.0466 23.6824 62.7988 25.7836 62.7988 29.0291ZM60.5891 29.0291C60.5891 26.9087 59.4933 25.5147 57.8214 25.5147C56.1788 25.5147 55.074 26.9381 55.074 29.0291C55.074 31.1394 56.1788 32.5526 57.8214 32.5526C59.4933 32.5526 60.5891 31.1688 60.5891 29.0291Z" fill="#B3B3B3"/>
<path d="M74.3251 29.0291C74.3251 32.2837 72.5832 34.3748 69.9544 34.3748C69.2885 34.4096 68.6262 34.2562 68.0434 33.9321C67.4607 33.6081 66.9809 33.1265 66.6591 32.5424H66.6094V37.7299H64.4596V23.7919H66.5405V25.5339H66.58C66.9166 24.9526 67.4044 24.4735 67.9917 24.1475C68.5789 23.8214 69.2435 23.6607 69.9148 23.6824C72.573 23.6824 74.3251 25.7835 74.3251 29.0291ZM72.1155 29.0291C72.1155 26.9087 71.0197 25.5147 69.3477 25.5147C67.7052 25.5147 66.6004 26.9381 66.6004 29.0291C66.6004 31.1394 67.7052 32.5526 69.3477 32.5526C71.0197 32.5526 72.1155 31.1687 72.1155 29.0291H72.1155Z" fill="#B3B3B3"/>
<path d="M81.9454 30.2628C82.1047 31.6873 83.4886 32.6226 85.3796 32.6226C87.1916 32.6226 88.4953 31.6872 88.4953 30.4028C88.4953 29.2878 87.709 28.6202 85.8473 28.1626L83.9856 27.7141C81.3478 27.077 80.1232 25.8434 80.1232 23.8416C80.1232 21.3631 82.2832 19.6606 85.3503 19.6606C88.3857 19.6606 90.4666 21.3631 90.5366 23.8416H88.3665C88.2366 22.408 87.0515 21.5427 85.3197 21.5427C83.5879 21.5427 82.4029 22.4182 82.4029 23.6925C82.4029 24.7081 83.1598 25.3057 85.0113 25.7631L86.594 26.1518C89.5413 26.8488 90.7659 28.0327 90.7659 30.1339C90.7659 32.8214 88.6252 34.5046 85.2203 34.5046C82.0346 34.5046 79.8837 32.8609 79.7448 30.2626L81.9454 30.2628Z" fill="#B3B3B3"/>
<path d="M95.4039 21.3135V23.792H97.3956V25.4944H95.4039V31.2682C95.4039 32.1652 95.8027 32.5832 96.6782 32.5832C96.9147 32.579 97.1507 32.5624 97.3854 32.5334V34.2257C96.9918 34.2992 96.5917 34.3325 96.1913 34.3251C94.0709 34.3251 93.244 33.5287 93.244 31.4975V25.4944H91.7212V23.792H93.244V21.3135H95.4039Z" fill="#B3B3B3"/>
<path d="M98.5494 29.0293C98.5494 25.734 100.49 23.6633 103.517 23.6633C106.553 23.6633 108.485 25.734 108.485 29.0293C108.485 32.3336 106.563 34.3953 103.517 34.3953C100.471 34.3953 98.5494 32.3336 98.5494 29.0293ZM106.295 29.0293C106.295 26.7688 105.259 25.4347 103.517 25.4347C101.775 25.4347 100.74 26.779 100.74 29.0293C100.74 31.2988 101.775 32.6228 103.517 32.6228C105.259 32.6228 106.294 31.2988 106.294 29.0293H106.295Z" fill="#B3B3B3"/>
<path d="M110.257 23.7918H112.307V25.5745H112.357C112.496 25.0177 112.822 24.5257 113.281 24.1811C113.74 23.8365 114.303 23.6603 114.876 23.6822C115.124 23.6814 115.371 23.7083 115.613 23.7625V25.7733C115.3 25.6777 114.974 25.6338 114.647 25.6434C114.335 25.6307 114.023 25.6858 113.734 25.8048C113.445 25.9238 113.185 26.104 112.973 26.3329C112.76 26.5618 112.599 26.8341 112.501 27.131C112.404 27.4279 112.371 27.7424 112.407 28.053V34.2651H110.257L110.257 23.7918Z" fill="#B3B3B3"/>
<path d="M125.525 31.1893C125.236 33.0905 123.384 34.3953 121.015 34.3953C117.969 34.3953 116.078 32.354 116.078 29.079C116.078 25.7939 117.979 23.6633 120.925 23.6633C123.823 23.6633 125.645 25.6538 125.645 28.8294V29.5659H118.248V29.6958C118.213 30.0813 118.262 30.4696 118.389 30.8349C118.517 31.2003 118.72 31.5343 118.987 31.8149C119.253 32.0955 119.576 32.3162 119.935 32.4623C120.293 32.6084 120.678 32.6766 121.065 32.6624C121.573 32.71 122.083 32.5923 122.519 32.3269C122.954 32.0615 123.293 31.6625 123.484 31.1892L125.525 31.1893ZM118.258 28.0634H123.494C123.513 27.7169 123.461 27.37 123.34 27.0447C123.218 26.7194 123.031 26.4227 122.79 26.1731C122.549 25.9235 122.259 25.7264 121.938 25.5943C121.617 25.4622 121.272 25.3978 120.925 25.4053C120.575 25.4032 120.228 25.4705 119.904 25.6032C119.58 25.7359 119.286 25.9315 119.038 26.1786C118.79 26.4258 118.593 26.7196 118.459 27.0431C118.325 27.3666 118.257 27.7134 118.258 28.0634V28.0634Z" fill="#B3B3B3"/>
<path d="M42.7467 9.08742C43.1974 9.05508 43.6497 9.12317 44.0709 9.28678C44.4921 9.45039 44.8718 9.70544 45.1824 10.0335C45.4931 10.3616 45.7272 10.7546 45.8676 11.1841C46.008 11.6136 46.0514 12.0689 45.9946 12.5171C45.9946 14.7223 44.8028 15.9898 42.7467 15.9898H40.2535V9.08742H42.7467ZM41.3256 15.0137H42.627C42.949 15.0329 43.2713 14.9801 43.5704 14.8591C43.8695 14.7381 44.1378 14.5519 44.3559 14.3141C44.5739 14.0763 44.7362 13.7929 44.8309 13.4845C44.9256 13.176 44.9503 12.8504 44.9033 12.5312C44.9469 12.2133 44.9197 11.8896 44.8235 11.5835C44.7274 11.2773 44.5647 10.9962 44.3471 10.7603C44.1296 10.5244 43.8626 10.3395 43.5652 10.2189C43.2678 10.0984 42.9474 10.0451 42.627 10.0628H41.3256V15.0137Z" fill="#B3B3B3"/>
<path d="M47.2056 13.3829C47.1728 13.0406 47.212 12.6952 47.3206 12.3689C47.4291 12.0426 47.6047 11.7426 47.836 11.4881C48.0672 11.2336 48.3492 11.0303 48.6636 10.8912C48.9781 10.752 49.3182 10.6802 49.6621 10.6802C50.006 10.6802 50.346 10.752 50.6605 10.8912C50.975 11.0303 51.2569 11.2336 51.4882 11.4881C51.7195 11.7426 51.8951 12.0426 52.0036 12.3689C52.1122 12.6952 52.1513 13.0406 52.1186 13.3829C52.1519 13.7255 52.1132 14.0714 52.005 14.3982C51.8967 14.7251 51.7213 15.0256 51.4899 15.2806C51.2586 15.5356 50.9764 15.7393 50.6616 15.8787C50.3468 16.0182 50.0064 16.0902 49.6621 16.0902C49.3178 16.0902 48.9773 16.0182 48.6625 15.8787C48.3477 15.7393 48.0656 15.5356 47.8342 15.2806C47.6029 15.0256 47.4274 14.7251 47.3192 14.3982C47.2109 14.0714 47.1722 13.7255 47.2056 13.3829V13.3829ZM51.0612 13.3829C51.0612 12.2538 50.5539 11.5935 49.6638 11.5935C48.7702 11.5935 48.2675 12.2538 48.2675 13.3829C48.2675 14.521 48.7702 15.1763 49.6638 15.1763C50.554 15.1762 51.0612 14.5165 51.0612 13.3829H51.0612Z" fill="#B3B3B3"/>
<path d="M58.6492 15.9902H57.5828L56.5062 12.1538H56.4249L55.3528 15.9902H54.2965L52.8607 10.7812H53.9034L54.8365 14.756H54.9134L55.9843 10.7812H56.9705L58.0414 14.756H58.1228L59.0514 10.7812H60.0794L58.6492 15.9902Z" fill="#B3B3B3"/>
<path d="M61.2872 10.7812H62.2768V11.6087H62.3537C62.484 11.3115 62.7038 11.0624 62.9824 10.896C63.261 10.7296 63.5846 10.6544 63.9081 10.6807C64.1615 10.6616 64.416 10.6998 64.6527 10.7925C64.8894 10.8851 65.1022 11.0299 65.2753 11.2159C65.4485 11.402 65.5776 11.6246 65.653 11.8673C65.7284 12.1101 65.7483 12.3666 65.7111 12.6181V15.9901H64.6831V12.8762C64.6831 12.0391 64.3193 11.6228 63.559 11.6228C63.3869 11.6148 63.2152 11.6441 63.0555 11.7087C62.8958 11.7733 62.7519 11.8716 62.6338 11.997C62.5156 12.1224 62.426 12.2718 62.371 12.4351C62.316 12.5983 62.297 12.7716 62.3152 12.9429V15.9902H61.2872L61.2872 10.7812Z" fill="#B3B3B3"/>
<path d="M67.3489 8.74731H68.3769V15.9897H67.3489V8.74731Z" fill="#B3B3B3"/>
<path d="M69.806 13.383C69.7733 13.0406 69.8125 12.6952 69.9211 12.3689C70.0296 12.0426 70.2052 11.7426 70.4365 11.4881C70.6679 11.2336 70.9498 11.0303 71.2643 10.8912C71.5788 10.752 71.9189 10.6802 72.2628 10.6802C72.6067 10.6802 72.9468 10.752 73.2613 10.8912C73.5758 11.0303 73.8577 11.2336 74.0891 11.4881C74.3204 11.7426 74.4959 12.0426 74.6045 12.3689C74.7131 12.6952 74.7523 13.0406 74.7196 13.383C74.7529 13.7257 74.7142 14.0715 74.6059 14.3983C74.4976 14.7252 74.3221 15.0257 74.0907 15.2807C73.8593 15.5356 73.5772 15.7394 73.2624 15.8788C72.9476 16.0182 72.6071 16.0903 72.2628 16.0903C71.9185 16.0903 71.578 16.0182 71.2632 15.8788C70.9484 15.7394 70.6662 15.5356 70.4349 15.2807C70.2035 15.0257 70.028 14.7252 69.9197 14.3983C69.8114 14.0715 69.7727 13.7257 69.806 13.383V13.383ZM73.6616 13.383C73.6616 12.2539 73.1544 11.5936 72.2642 11.5936C71.3706 11.5936 70.868 12.2539 70.868 13.383C70.868 14.5211 71.3707 15.1764 72.2642 15.1764C73.1544 15.1763 73.6616 14.5166 73.6616 13.383H73.6616Z" fill="#B3B3B3"/>
<path d="M75.8013 14.5166C75.8013 13.5789 76.4994 13.0384 77.7387 12.9616L79.1496 12.8802V12.4306C79.1496 11.8805 78.7859 11.5698 78.0832 11.5698C77.5094 11.5698 77.1117 11.7805 76.9976 12.1488H76.0024C76.1074 11.254 76.949 10.6802 78.1307 10.6802C79.4366 10.6802 80.1731 11.3303 80.1731 12.4306V15.9897H79.1835V15.2576H79.1022C78.9371 15.5202 78.7053 15.7343 78.4304 15.878C78.1555 16.0217 77.8474 16.0898 77.5376 16.0755C77.3189 16.0982 77.0979 16.0749 76.8888 16.007C76.6797 15.9391 76.4871 15.8281 76.3236 15.6813C76.16 15.5344 76.029 15.3549 75.939 15.1542C75.8491 14.9536 75.8021 14.7364 75.8013 14.5166V14.5166ZM79.1496 14.0715V13.636L77.8776 13.7173C77.1603 13.7653 76.8349 14.0093 76.8349 14.4685C76.8349 14.9374 77.2416 15.2102 77.8008 15.2102C77.9647 15.2268 78.1302 15.2102 78.2875 15.1615C78.4449 15.1128 78.5908 15.033 78.7166 14.9268C78.8425 14.8205 78.9457 14.69 79.0201 14.5431C79.0944 14.3962 79.1385 14.2358 79.1496 14.0715V14.0715Z" fill="#B3B3B3"/>
<path d="M81.5243 13.383C81.5243 11.737 82.3704 10.6943 83.6865 10.6943C84.012 10.6793 84.3351 10.7573 84.618 10.9191C84.9009 11.081 85.1318 11.32 85.2839 11.6082H85.3607V8.74731H86.3887V15.9897H85.4036V15.1667H85.3223C85.1585 15.453 84.9195 15.689 84.6311 15.8492C84.3428 16.0094 84.0161 16.0877 83.6865 16.0755C82.3614 16.0756 81.5243 15.0329 81.5243 13.383ZM82.5862 13.383C82.5862 14.4878 83.107 15.1526 83.978 15.1526C84.8444 15.1526 85.3799 14.4782 85.3799 13.3875C85.3799 12.3019 84.8388 11.6178 83.978 11.6178C83.1126 11.6178 82.5862 12.2872 82.5862 13.383H82.5862Z" fill="#B3B3B3"/>
<path d="M90.6416 13.3829C90.6089 13.0406 90.648 12.6952 90.7566 12.3689C90.8651 12.0426 91.0407 11.7426 91.272 11.4881C91.5033 11.2336 91.7852 11.0303 92.0997 10.8912C92.4141 10.752 92.7542 10.6802 93.0981 10.6802C93.442 10.6802 93.7821 10.752 94.0965 10.8912C94.411 11.0303 94.6929 11.2336 94.9242 11.4881C95.1555 11.7426 95.3311 12.0426 95.4396 12.3689C95.5482 12.6952 95.5874 13.0406 95.5546 13.3829C95.588 13.7255 95.5493 14.0714 95.441 14.3982C95.3327 14.7251 95.1573 15.0256 94.9259 15.2806C94.6946 15.5356 94.4125 15.7393 94.0977 15.8787C93.7829 16.0182 93.4424 16.0902 93.0981 16.0902C92.7538 16.0902 92.4133 16.0182 92.0986 15.8787C91.7838 15.7393 91.5016 15.5356 91.2703 15.2806C91.0389 15.0256 90.8635 14.7251 90.7552 14.3982C90.6469 14.0714 90.6083 13.7255 90.6416 13.3829V13.3829ZM94.4972 13.3829C94.4972 12.2538 93.99 11.5935 93.0998 11.5935C92.2062 11.5935 91.7036 12.2538 91.7036 13.3829C91.7036 14.521 92.2063 15.1763 93.0998 15.1763C93.99 15.1762 94.4972 14.5165 94.4972 13.3829Z" fill="#B3B3B3"/>
<path d="M96.9341 10.7812H97.9237V11.6087H98.0005C98.1308 11.3115 98.3506 11.0624 98.6293 10.896C98.9079 10.7296 99.2315 10.6544 99.5549 10.6807C99.8084 10.6616 100.063 10.6998 100.3 10.7925C100.536 10.8851 100.749 11.0299 100.922 11.2159C101.095 11.402 101.224 11.6246 101.3 11.8673C101.375 12.1101 101.395 12.3666 101.358 12.6181V15.9901H100.33V12.8762C100.33 12.0391 99.9662 11.6228 99.2059 11.6228C99.0338 11.6148 98.862 11.6441 98.7023 11.7087C98.5426 11.7733 98.3988 11.8716 98.2806 11.997C98.1625 12.1224 98.0728 12.2718 98.0179 12.4351C97.9629 12.5983 97.9439 12.7716 97.9621 12.9429V15.9902H96.9341V10.7812Z" fill="#B3B3B3"/>
<path d="M107.166 9.48413V10.8047H108.295V11.6706H107.166V14.3491C107.166 14.8947 107.391 15.1337 107.903 15.1337C108.034 15.1332 108.165 15.1253 108.295 15.1099V15.9662C108.11 15.9993 107.923 16.0168 107.736 16.0188C106.592 16.0188 106.137 15.6166 106.137 14.6123V11.6706H105.31V10.8047H106.137V9.48413H107.166Z" fill="#B3B3B3"/>
<path d="M109.701 8.74731H110.72V11.6178H110.801C110.938 11.3179 111.163 11.0673 111.448 10.9003C111.732 10.7333 112.061 10.6581 112.389 10.6847C112.641 10.671 112.893 10.7131 113.127 10.808C113.361 10.9029 113.572 11.0483 113.743 11.2338C113.914 11.4192 114.043 11.6402 114.119 11.881C114.195 12.1218 114.217 12.3764 114.183 12.6266V15.9897H113.154V12.8802C113.154 12.0482 112.767 11.6269 112.04 11.6269C111.864 11.6124 111.686 11.6367 111.52 11.698C111.353 11.7594 111.202 11.8564 111.077 11.9822C110.952 12.1079 110.857 12.2595 110.796 12.4262C110.736 12.593 110.713 12.7709 110.729 12.9475V15.9897H109.701L109.701 8.74731Z" fill="#B3B3B3"/>
<path d="M120.176 14.5833C120.037 15.0594 119.734 15.4712 119.321 15.7467C118.909 16.0221 118.413 16.1438 117.919 16.0903C117.576 16.0994 117.235 16.0336 116.92 15.8977C116.605 15.7617 116.323 15.5588 116.094 15.303C115.865 15.0472 115.694 14.7446 115.594 14.4163C115.494 14.088 115.466 13.7417 115.513 13.4017C115.467 13.0605 115.495 12.7136 115.596 12.3843C115.696 12.055 115.865 11.751 116.093 11.493C116.321 11.2349 116.601 11.0288 116.916 10.8886C117.23 10.7484 117.571 10.6773 117.915 10.6803C119.364 10.6803 120.239 11.6705 120.239 13.3062V13.6649H116.56V13.7225C116.544 13.9137 116.568 14.1061 116.631 14.2874C116.693 14.4687 116.793 14.635 116.924 14.7755C117.054 14.916 117.213 15.0276 117.389 15.1033C117.566 15.1789 117.756 15.2169 117.948 15.2148C118.193 15.2443 118.443 15.2 118.663 15.0876C118.884 14.9751 119.066 14.7996 119.187 14.5833L120.176 14.5833ZM116.56 12.9046H119.191C119.204 12.7298 119.18 12.5542 119.122 12.3891C119.063 12.224 118.97 12.073 118.849 11.946C118.728 11.8189 118.582 11.7185 118.42 11.6512C118.258 11.5839 118.084 11.5512 117.909 11.5552C117.731 11.553 117.555 11.5864 117.39 11.6534C117.225 11.7204 117.076 11.8197 116.95 11.9455C116.824 12.0713 116.725 12.2209 116.658 12.3856C116.591 12.5503 116.558 12.7268 116.56 12.9046H116.56Z" fill="#B3B3B3"/>
</svg>
