<svg width="93" height="25" viewBox="0 0 93 25" fill="none" xmlns="http://www.w3.org/2000/svg">
<g clip-path="url(#clip0_11_832)">
<path fill-rule="evenodd" clip-rule="evenodd" d="M24.2731 8.52843C24.191 8.3612 24.0269 8.27759 23.8628 8.27759H14.7542L19.2593 0.83612C19.3413 0.668896 19.4234 0.41806 19.2593 0.167224C19.1772 0.083612 19.0131 0 18.849 0H10.9713C10.1507 0 9.4122 0.41806 9.00191 1.17057L0.0656946 15.7191C-0.0163643 15.8863 -0.0163643 16.1371 0.0656946 16.388C0.147753 16.5552 0.311871 16.6388 0.475989 16.6388H9.58453L5.07129 24.0803C4.98923 24.2475 4.98923 24.4147 4.98923 24.5819C5.07129 24.8328 5.2354 25 5.48158 25H13.3592C14.1798 25 14.9184 24.5819 15.3286 23.8294L19.6778 16.7224L24.191 9.28094C24.3551 8.94649 24.4372 8.69565 24.2731 8.52843Z" fill="#4E48E0"/>
<path fill-rule="evenodd" clip-rule="evenodd" d="M19.7598 16.5552L15.4106 23.6622C15.0003 24.4147 14.2618 24.8328 13.4412 24.8328H5.47331C5.22713 24.8328 5.06302 24.6655 4.98096 24.4147C4.98096 24.2475 4.98096 24.0803 5.06302 23.913L9.57625 16.4716H19.7516V16.5552H19.7598Z" fill="#4E48E0"/>
<path fill-rule="evenodd" clip-rule="evenodd" d="M14.6638 8.27759H23.7724C23.9365 8.27759 24.1006 8.3612 24.1827 8.52842C24.3468 8.69565 24.3468 9.0301 24.1827 9.19732L19.6694 16.6388H9.57617L14.6638 8.27759Z" fill="#1C81C1"/>
<path fill-rule="evenodd" clip-rule="evenodd" d="M0.475989 16.5552C0.311871 16.5552 0.147753 16.4716 0.0656946 16.3043C-0.0163643 16.1371 -0.0163643 15.8863 0.0656946 15.7191L9.00191 1.17057C9.4122 0.41806 10.1507 0 10.9713 0H18.849C19.0131 0 19.1772 0.0836121 19.2593 0.250836C19.4234 0.41806 19.4234 0.752508 19.2593 0.919732L9.65838 16.5552H0.475989Z" fill="#5CC4CD"/>
<path d="M38.502 20.5017C37.9111 20.5017 37.3449 20.4264 36.8033 20.2676C36.2536 20.1087 35.7612 19.883 35.3017 19.5903C34.8421 19.2977 34.4483 18.9465 34.1118 18.5201L35.6545 16.9482C36.0238 17.383 36.4423 17.709 36.9264 17.9264C37.4024 18.1438 37.944 18.2525 38.5512 18.2525C39.101 18.2525 39.5113 18.1689 39.7903 18.0017C40.0693 17.8345 40.2088 17.6003 40.2088 17.2826C40.2088 16.9649 40.0775 16.6973 39.8149 16.5217C39.5523 16.3462 39.2077 16.1873 38.7892 16.0619C38.3707 15.9365 37.9276 15.8027 37.468 15.6689C37.0085 15.5351 36.5654 15.3512 36.1469 15.1171C35.7284 14.883 35.3837 14.5652 35.1211 14.1639C34.8586 13.7542 34.7191 13.2358 34.7191 12.592C34.7191 11.9064 34.875 11.3127 35.195 10.8194C35.515 10.3261 35.9581 9.94148 36.5408 9.67392C37.1234 9.40636 37.8127 9.27258 38.6251 9.27258C39.4785 9.27258 40.2334 9.42308 40.8817 9.73245C41.5381 10.0418 42.0879 10.5017 42.5229 11.112L40.9801 12.684C40.6683 12.291 40.3155 11.9983 39.9216 11.806C39.5277 11.6137 39.0682 11.5134 38.5512 11.5134C38.0671 11.5134 37.6896 11.5886 37.427 11.7391C37.1644 11.8896 37.0249 12.107 37.0249 12.3913C37.0249 12.6923 37.1562 12.9264 37.427 13.0853C37.6896 13.2525 38.0342 13.3947 38.4527 13.5117C38.8712 13.6288 39.3144 13.7625 39.7739 13.9047C40.2334 14.0468 40.6765 14.2391 41.095 14.49C41.5135 14.7408 41.8582 15.0669 42.1208 15.4766C42.3834 15.8863 42.5146 16.4214 42.5146 17.0819C42.5146 18.1355 42.1536 18.9632 41.4315 19.5736C40.7094 20.184 39.7329 20.4933 38.4938 20.4933L38.502 20.5017Z" fill="#3A3945"/>
<path d="M44.5251 20.2759V4.08862H46.9541V20.2759H44.5251ZM51.7874 20.2759V14.0468C51.7874 13.3278 51.5576 12.7341 51.1145 12.2742C50.6632 11.8144 50.0887 11.5803 49.383 11.5803C48.9153 11.5803 48.4886 11.6806 48.1275 11.898C47.7583 12.107 47.4711 12.3997 47.2659 12.7759C47.0608 13.1522 46.9541 13.5786 46.9541 14.0552L46.0022 13.5117C46.0022 12.6923 46.1745 11.9565 46.5356 11.3211C46.8884 10.6856 47.3808 10.1839 48.0044 9.81605C48.6281 9.44815 49.3338 9.26421 50.1134 9.26421C50.8929 9.26421 51.615 9.43979 52.2305 9.80769C52.8459 10.1672 53.3383 10.6689 53.6829 11.3043C54.0276 11.9398 54.2163 12.6839 54.2163 13.5201V20.2843H51.7874V20.2759Z" fill="#3A3945"/>
<path d="M61.6015 20.5017C60.5429 20.5017 59.591 20.2592 58.7458 19.7743C57.9006 19.2893 57.2277 18.612 56.7354 17.7592C56.243 16.9064 55.9968 15.9448 55.9968 14.8829C55.9968 13.8211 56.243 12.8595 56.7271 12.0151C57.2113 11.1706 57.8678 10.5017 58.7048 10C59.5336 9.5067 60.4608 9.25586 61.4702 9.25586C62.4795 9.25586 63.3247 9.48997 64.0878 9.94984C64.851 10.4097 65.4418 11.0535 65.8767 11.8562C66.3116 12.6672 66.525 13.587 66.525 14.6238C66.525 14.7993 66.5168 14.9833 66.4922 15.1756C66.4675 15.3595 66.4347 15.5686 66.3937 15.7943H57.7037V13.7709H65.1382L64.2355 14.5819C64.2027 13.9214 64.0796 13.3696 63.8581 12.9181C63.6365 12.4666 63.3247 12.1238 62.9226 11.8813C62.5205 11.6388 62.02 11.5217 61.4373 11.5217C60.8219 11.5217 60.2803 11.6555 59.829 11.9231C59.3695 12.1906 59.0248 12.5753 58.7704 13.0602C58.516 13.5452 58.393 14.1304 58.393 14.7993C58.393 15.4682 58.5242 16.0619 58.7868 16.5719C59.0494 17.0819 59.4269 17.4749 59.911 17.7508C60.3952 18.0268 60.9532 18.1689 61.585 18.1689C62.1266 18.1689 62.6354 18.0686 63.0949 17.8763C63.5627 17.684 63.9565 17.3997 64.2766 17.0234L65.8193 18.6204C65.3023 19.2391 64.6787 19.699 63.9483 20.0167C63.218 20.3345 62.4302 20.485 61.6097 20.485L61.6015 20.5017Z" fill="#3A3945"/>
<path d="M68.4617 20.2759V4.08862H70.8906V20.2759H68.4617Z" fill="#3A3945"/>
<path d="M72.499 11.7308V9.48164H80.6639V11.7308H72.499ZM75.0346 20.276V8.0686C75.0346 7.24084 75.2152 6.51342 75.5762 5.88633C75.9373 5.25924 76.4379 4.75756 77.0779 4.40639C77.718 4.04686 78.4565 3.86292 79.2935 3.86292C79.9418 3.86292 80.4916 3.97161 80.9511 4.19736C81.4106 4.42312 81.8373 4.74084 82.2312 5.16726L80.6639 6.76425C80.4916 6.58867 80.2946 6.43817 80.0895 6.33783C79.8843 6.2375 79.6217 6.17897 79.2935 6.17897C78.7027 6.17897 78.2514 6.33783 77.9395 6.66392C77.6277 6.99001 77.4636 7.44987 77.4636 8.04352V20.276H75.0346Z" fill="#3A3945"/>
<path d="M85.6201 20.3847L81.0986 9.48169H83.7655L86.8592 17.4834H86.0878L89.3538 9.48169H92.0453L87.1218 20.3847H85.6201ZM82.469 24.766L85.7514 17.8596L87.1218 20.3763L85.1605 24.7576H82.469V24.766Z" fill="#3A3945"/>
</g>
<defs>
<clipPath id="clip0_11_832">
<rect width="92.0455" height="25" fill="white"/>
</clipPath>
</defs>
</svg>
